<?xml version="1.0" standalone="no"?><!DOCTYPE svg PUBLIC "-//W3C//DTD SVG 1.1//EN" "http://www.w3.org/Graphics/SVG/1.1/DTD/svg11.dtd"><svg class="icon" width="64px" height="64.00px" viewBox="0 0 1024 1024" version="1.1" xmlns="http://www.w3.org/2000/svg"><path fill="#147879" d="M556.635 721.77s67.415-28.252 165.433-53.062c51.149-58.24 91.155-122.113 122.353-185.81-73.962 21.893-124.423 32.98-124.423 32.98s55.962-29.698 139.785-65.69c86.237-193.53 94.849-375.114 94.849-375.114s-381.49 18.022-627.901 264.431C108.338 557.9 69.376 882.178 63.333 953.153c34.525-48.806 91.349-122.825 164.963-196.441 125.867-125.867 253.045-202.759 253.045-202.759s-99.242 104.828-225.109 230.695c-75.705 75.705-21.023 19.004-63.275 59.642 54.163-4.051 259.977 79.394 478.759-123.598-69.178 3.635-115.081 1.078-115.081 1.078z" /></svg>