<?xml version="1.0" standalone="no"?><!DOCTYPE svg PUBLIC "-//W3C//DTD SVG 1.1//EN" "http://www.w3.org/Graphics/SVG/1.1/DTD/svg11.dtd"><svg class="icon" width="64px" height="64.00px" viewBox="0 0 1024 1024" version="1.1" xmlns="http://www.w3.org/2000/svg"><path fill="#147879" d="M26.7 619.4V404.6h95.2c19.1 0 33.7 1.9 43.7 5.8s17.9 10.7 23.9 20.4c6 9.8 8.9 20.6 8.9 32.4 0 15.2-4.9 28.1-14.8 38.5-9.9 10.5-25.1 17.1-45.7 19.9 7.5 3.6 13.2 7.2 17.1 10.7 8.3 7.6 16.2 17.1 23.6 28.6l37.4 58.4h-35.7l-28.4-44.7c-8.3-12.9-15.1-22.8-20.5-29.6-5.4-6.8-10.2-11.6-14.4-14.4-4.2-2.7-8.6-4.6-13-5.7-3.2-0.7-8.5-1-15.8-1h-33v95.4H26.7z m28.4-120h61.1c13 0 23.1-1.3 30.5-4 7.3-2.7 12.9-7 16.7-12.9 3.8-5.9 5.7-12.3 5.7-19.3 0-10.2-3.7-18.5-11.1-25-7.4-6.5-19-9.8-34.9-9.8h-68v71zM243.5 619.4V404.6h155.3V430H271.9v65.8h118.8V521H271.9v73h131.8v25.3H243.5zM433.3 550.4l26.8-2.3c1.3 10.7 4.2 19.6 8.9 26.4 4.6 6.9 11.8 12.5 21.6 16.7 9.8 4.2 20.8 6.4 33 6.4 10.8 0 20.4-1.6 28.7-4.8 8.3-3.2 14.5-7.6 18.5-13.3 4.1-5.6 6.1-11.7 6.1-18.4 0-6.7-2-12.6-5.9-17.7-3.9-5-10.4-9.3-19.3-12.7-5.8-2.2-18.5-5.7-38.2-10.5-19.7-4.7-33.5-9.2-41.5-13.4-10.3-5.4-17.9-12-22.9-20s-7.5-16.9-7.5-26.7c0-10.8 3.1-21 9.2-30.4 6.2-9.4 15.1-16.6 27-21.5 11.8-4.9 25-7.3 39.4-7.3 15.9 0 30 2.6 42.1 7.7s21.5 12.7 28.1 22.6c6.5 10 10.1 21.2 10.5 33.8l-27.2 2.1c-1.5-13.6-6.4-23.8-14.9-30.8-8.4-6.9-20.9-10.4-37.4-10.4-17.2 0-29.7 3.1-37.6 9.4-7.9 6.3-11.8 13.9-11.8 22.8 0 7.7 2.8 14.1 8.3 19 5.5 5 19.8 10.1 42.8 15.3 23.1 5.2 38.9 9.8 47.5 13.7 12.5 5.8 21.7 13.1 27.7 21.9 6 8.8 8.9 19 8.9 30.5 0 11.4-3.3 22.2-9.8 32.3-6.5 10.1-15.9 18-28.2 23.6-12.3 5.6-26.1 8.4-41.4 8.4-19.4 0-35.7-2.8-48.9-8.5-13.1-5.7-23.4-14.2-30.9-25.6-7.3-11.1-11.3-24-11.7-38.3zM643.7 619.4V404.6H799V430H672.1v65.8h118.8V521H672.1v73h131.8v25.3H643.7zM897.8 619.4V430H827v-25.3h170.2V430h-71v189.4h-28.4zM550.6 387.2l-42.2-42.7c27.1-26.8 54.5-54.3 81.1-80.9 30.8-30.8 62.6-62.7 94.1-93.7l42.1 42.8c-31.3 30.8-63 62.6-93.7 93.3-26.7 26.7-54.2 54.3-81.4 81.2zM213.7 724.7l-43.3-41.5c11.2-11.7 22.8-23 34-34 8.8-8.6 18-17.6 26.6-26.4l42.8 42c-9.1 9.3-18.5 18.4-27.5 27.3-10.8 10.5-22.1 21.5-32.6 32.6zM796.6 397.9L754 355.6c6.9-7 14-13.8 20.9-20.4 12.8-12.3 25-23.9 35.8-36.5l45.4 39.2c-12.7 14.7-26.5 27.9-39.7 40.6-6.9 6.7-13.4 12.9-19.8 19.4zM341.2 853l-42.4-42.5c23-22.9 46.2-46.4 68.7-69.1 38.2-38.6 77.8-78.5 117.7-117.4l41.8 43c-39.5 38.4-78.8 78.1-116.9 116.6-22.4 22.8-45.8 46.4-68.9 69.4z" /></svg>