<?xml version="1.0" standalone="no"?><!DOCTYPE svg PUBLIC "-//W3C//DTD SVG 1.1//EN" "http://www.w3.org/Graphics/SVG/1.1/DTD/svg11.dtd"><svg class="icon" width="64px" height="64.00px" viewBox="0 0 1024 1024" version="1.1" xmlns="http://www.w3.org/2000/svg"><path fill="#147879" d="M653.760143 434.470229c37.149085 0 67.198471-30.091342 67.198471-67.189262 0-37.107129-30.049387-67.189262-67.198471-67.189262-37.098943 0-67.180052 30.082132-67.180052 67.189262C586.580091 404.378887 616.6612 434.470229 653.760143 434.470229L653.760143 434.470229zM653.760143 434.470229M370.238834 434.470229c37.150108 0 67.180052-30.091342 67.180052-67.189262 0-37.107129-30.030967-67.189262-67.180052-67.189262-37.115316 0-67.198471 30.082132-67.198471 67.189262C303.040363 404.378887 333.123518 434.470229 370.238834 434.470229L370.238834 434.470229zM370.238834 434.470229M678.957011 573.369719c-25.406646 67.520813-90.51041 115.559922-166.905334 115.559922-76.429717 0-141.604088-48.064692-167.028131-115.620297l-45.61285-25.816992-36.591383 49.182143c35.70213 103.292528 133.786029 177.444365 249.179153 177.444365 115.482151 0 213.567074-74.161047 249.250784-177.48018l-36.557614-49.146327L678.957011 573.369719 678.957011 573.369719zM678.957011 573.369719M511.998465 65.290005c-246.701728 0-446.708971 200.007243-446.708971 446.708971 0 246.702752 200.007243 446.709995 446.708971 446.709995 246.75494 0 446.711018-200.007243 446.711018-446.709995C958.709483 265.297248 758.753405 65.290005 511.998465 65.290005L511.998465 65.290005zM511.998465 870.098841c-197.754946 0-358.099864-160.317289-358.099864-358.099864 0-197.74676 160.343895-358.099864 358.099864-358.099864 197.791785 0 358.100888 160.353105 358.100888 358.099864C870.099353 709.781552 709.79025 870.098841 511.998465 870.098841L511.998465 870.098841zM511.998465 870.098841" /></svg>